# xmcd
#
# Track frame offsets: 
#        150
#        14220
#        28215
#        43120
#        57602
#        72262
#        86145
#        100487
#        112275
#        124182
#        136165
#        148482
#        160872
#
# Disc length: 2306 seconds
#
# Revision: 0
# Processed by: cddbd v1.5.1PL0 Copyright (c) Steve Scherf et al.
# Submitted via: ExactAudioCopy v0.95a5
#
DISCID=d309000d
DTITLE=BULL CITY RED - (1935 - 1939)
DYEAR=1900
DGENRE=
TTITLE0=Now I´m Talking About You
TTITLE1=I Saw The Light
TTITLE2=Richmond Blues
TTITLE3=I Won´t Be Dogged Around
TTITLE4=Pick And Shovel Blues
TTITLE5=Black Woman And Poison Blues
TTITLE6=Mississippi River
TTITLE7=Have You Decided
TTITLE8=I See The Sign Of Judgement
TTITLE9=Everybody Wants To Know How I Die
TTITLE10=I Feel Like Shoutin´
TTITLE11=Jesus Touched Me
TTITLE12=Talkin´ With Jesus
EXTD=
EXTT0=
EXTT1=
EXTT2=
EXTT3=
EXTT4=
EXTT5=
EXTT6=
EXTT7=
EXTT8=
EXTT9=
EXTT10=
EXTT11=
EXTT12=
PLAYORDER=
